<svg width="73" height="69" viewBox="0 0 73 69" fill="none" xmlns="http://www.w3.org/2000/svg">
<path d="M71.2339 14.1402C70.1012 11.3731 68.468 8.86562 66.4258 6.75808C64.382 4.64424 61.9723 2.96441 59.3277 1.80993C56.5855 0.608044 53.6443 -0.00714839 50.6749 6.26665e-05C46.509 6.26665e-05 42.4446 1.20367 38.9124 3.47714C38.0674 4.02099 37.2647 4.61834 36.5042 5.26917C35.7437 4.61834 34.9409 4.02099 34.0959 3.47714C30.5638 1.20367 26.4993 6.26665e-05 22.3335 6.26665e-05C19.3337 6.26665e-05 16.4269 0.606323 13.6806 1.80993C11.0273 2.96895 8.63594 4.63617 6.58258 6.75808C4.53764 8.86324 2.90409 11.3713 1.77451 14.1402C0.599953 17.0199 0 20.078 0 23.2252C0 26.194 0.574603 29.2878 1.71536 32.435C2.67021 35.0651 4.03912 37.7932 5.78828 40.5481C8.55989 44.9079 12.3709 49.4548 17.1029 54.0642C24.9445 61.7048 32.7101 66.9829 33.0397 67.1968L35.0423 68.552C35.9296 69.1493 37.0703 69.1493 37.9576 68.552L39.9602 67.1968C40.2898 66.9739 48.0469 61.7048 55.897 54.0642C60.629 49.4548 64.44 44.9079 67.2116 40.5481C68.9608 37.7932 70.3381 35.0651 71.2845 32.435C72.4253 29.2878 72.9999 26.194 72.9999 23.2252C73.0084 20.078 72.4084 17.0199 71.2339 14.1402ZM36.5042 61.4998C36.5042 61.4998 6.42203 41.1633 6.42203 23.2252C6.42203 14.1402 13.5454 6.77591 22.3335 6.77591C28.5104 6.77591 33.8678 10.4135 36.5042 15.7272C39.1406 10.4135 44.4979 6.77591 50.6749 6.77591C59.4629 6.77591 66.5863 14.1402 66.5863 23.2252C66.5863 41.1633 36.5042 61.4998 36.5042 61.4998Z" fill="white"/>
</svg>
