<svg width="78" height="69" viewBox="0 0 78 69" fill="none" xmlns="http://www.w3.org/2000/svg">
<path fill-rule="evenodd" clip-rule="evenodd" d="M70.6341 6.75806C72.8057 8.86559 74.5423 11.3731 75.7467 14.1401C76.9957 17.0199 77.6337 20.0779 77.6247 23.2251C77.6247 26.194 77.0137 29.2877 75.8007 32.4349C74.7943 35.065 73.3297 37.7931 71.4697 40.548C68.5225 44.9077 64.4701 49.4547 59.4383 54.064C51.0909 61.7046 42.8423 66.9737 42.4919 67.1966L40.3623 68.5518C39.4189 69.1491 38.2058 69.1491 37.2624 68.5518L35.1328 67.1966C34.7824 66.9827 26.5248 61.7046 18.1864 54.064C13.1546 49.4547 9.10219 44.9077 6.15498 40.548C4.29501 37.7931 2.83938 35.065 1.82403 32.4349C0.611006 29.2877 0 26.194 0 23.2251C0 20.0779 0.637962 17.0199 1.88693 14.1401C3.08808 11.3713 4.82512 8.86322 6.99961 6.75806C9.18306 4.63615 11.7259 2.96894 14.5473 1.80992C17.4676 0.606321 20.5585 6.26663e-05 23.7484 6.26663e-05C28.1781 6.26663e-05 32.5001 1.20366 36.256 3.47713C37.1545 4.02098 38.0082 4.61832 38.8168 5.26916C39.6255 4.61832 40.4791 4.02098 41.3777 3.47713C45.1336 1.20366 49.4555 6.26663e-05 53.8853 6.26663e-05C57.0429 -0.00714837 60.1704 0.608042 63.0863 1.80992C65.8984 2.9644 68.4608 4.64423 70.6341 6.75806Z" fill="#009D68"/>
</svg>
