<svg width="70" height="70" viewBox="0 0 70 70" fill="none" xmlns="http://www.w3.org/2000/svg">
<path d="M29.9353 59.8674C36.5771 59.8661 43.0275 57.6427 48.2595 53.5514L64.7089 70L70 64.7092L53.5505 48.2606C57.6442 43.0285 59.869 36.5769 59.8706 29.9337C59.8706 13.429 46.4409 0 29.9353 0C13.4297 0 0 13.429 0 29.9337C0 46.4384 13.4297 59.8674 29.9353 59.8674ZM29.9353 7.48343C42.3173 7.48343 52.3868 17.5524 52.3868 29.9337C52.3868 42.3151 42.3173 52.384 29.9353 52.384C17.5533 52.384 7.48383 42.3151 7.48383 29.9337C7.48383 17.5524 17.5533 7.48343 29.9353 7.48343Z" fill="#898A8C"/>
</svg>
