<svg width="78" height="70" viewBox="0 0 78 70" fill="none" xmlns="http://www.w3.org/2000/svg">
<path d="M14.4929 36.2326V16.9087H7.24645C5.32457 16.9087 3.48141 17.6722 2.12244 19.0311C0.763463 20.3901 0 22.2333 0 24.1551V67.6338C0.00359496 68.0824 0.132047 68.5212 0.370961 68.9009C0.609875 69.2806 0.94981 69.5862 1.35267 69.7836C1.74079 69.9601 2.16871 70.0307 2.59296 69.9883C3.01721 69.9459 3.42267 69.7919 3.76815 69.5421L16.2079 60.3874H48.672C49.5875 60.4145 50.4988 60.2533 51.3494 59.9138C52.2001 59.5744 52.972 59.0639 53.6174 58.414C54.2627 57.7641 54.7678 56.9887 55.1013 56.1356C55.4348 55.2826 55.5896 54.3702 55.5561 53.455V50.7255H28.9858C25.142 50.7255 21.4557 49.1985 18.7378 46.4806C16.0198 43.7626 14.4929 40.0763 14.4929 36.2326V36.2326Z" fill="#B2B3B6"/>
<path d="M70.0489 0H28.9857C27.0638 0 25.2207 0.763463 23.8617 2.12244C22.5027 3.48141 21.7393 5.32457 21.7393 7.24645V36.2322C21.7393 38.1541 22.5027 39.9973 23.8617 41.3563C25.2207 42.7152 27.0638 43.4787 28.9857 43.4787H61.7155L73.2615 52.4401C73.6048 52.6939 74.0091 52.8522 74.4334 52.8989C74.8577 52.9455 75.2868 52.8789 75.677 52.7058C76.0881 52.5101 76.4354 52.2021 76.679 51.8175C76.9226 51.4328 77.0525 50.9872 77.0538 50.5319V7.24645C77.0549 5.3657 76.3246 3.55822 75.0175 2.20598C73.7103 0.853743 71.9286 0.0626914 70.0489 0V0Z" fill="#B2B3B6"/>
</svg>
