<svg width="70" height="70" viewBox="0 0 70 70" fill="none" xmlns="http://www.w3.org/2000/svg">
<path d="M63.8021 52.5H52.5V63.8021C53.3811 63.4983 54.0039 63.1641 54.3685 62.7995L62.7995 54.3685C63.1641 54.0039 63.4983 53.3811 63.8021 52.5ZM51.0417 46.6667H64.1667V5.83333H5.83333V64.1667H46.6667V51.0417C46.6667 49.8264 47.092 48.7934 47.9427 47.9427C48.7934 47.092 49.8264 46.6667 51.0417 46.6667ZM70 4.375V51.0417C70 52.2569 69.6962 53.5938 69.0885 55.0521C68.4809 56.5104 67.7517 57.6649 66.901 58.5156L58.5156 66.901C57.6649 67.7517 56.5104 68.4809 55.0521 69.0885C53.5938 69.6962 52.2569 70 51.0417 70H4.375C3.15972 70 2.12674 69.5747 1.27604 68.724C0.425347 67.8733 0 66.8403 0 65.625V4.375C0 3.15972 0.425347 2.12674 1.27604 1.27604C2.12674 0.425347 3.15972 0 4.375 0H65.625C66.8403 0 67.8733 0.425347 68.724 1.27604C69.5747 2.12674 70 3.15972 70 4.375Z" fill="#B2B3B6"/>
</svg>
