<svg width="37" height="70" viewBox="0 0 37 70" fill="none" xmlns="http://www.w3.org/2000/svg">
<path d="M1.40884 1.54081C0.50676 2.52768 0 3.866 0 5.26144C0 6.65688 0.50676 7.9952 1.40884 8.98207L25.2274 35.0318L1.40884 61.0815C0.532325 62.074 0.0473182 63.4033 0.0582815 64.7832C0.0692449 66.163 0.575301 67.4829 1.46745 68.4586C2.35961 69.4344 3.56647 69.9878 4.82812 69.9998C6.08976 70.0118 7.30524 69.4814 8.21276 68.5227L35.4333 38.7524C36.3354 37.7655 36.8421 36.4272 36.8421 35.0318C36.8421 33.6363 36.3354 32.298 35.4333 31.3111L8.21276 1.54081C7.31041 0.554229 6.08672 0 4.8108 0C3.53488 0 2.31119 0.554229 1.40884 1.54081V1.54081Z" fill="#B2B3B6"/>
</svg>
