<svg width="76" height="70" viewBox="0 0 76 70" fill="none" xmlns="http://www.w3.org/2000/svg">
<path d="M73.352 31.7478C74.1973 31.1352 74.8242 30.2805 75.1451 29.3036C75.4659 28.3268 75.4644 27.2767 75.1409 26.3007C74.8174 25.3247 74.1881 24.4717 73.3411 23.8612C72.4942 23.2508 71.4722 22.9136 70.4183 22.8968L49.9503 22.1445C49.8497 22.1377 49.7532 22.1028 49.6725 22.0439C49.5918 21.985 49.5303 21.9047 49.4955 21.8126L42.4227 3.22543C42.0673 2.27978 41.4219 1.46323 40.5737 0.886314C39.7256 0.309401 38.7158 0 37.6809 0C36.6461 0 35.6362 0.309401 34.7881 0.886314C33.94 1.46323 33.2946 2.27978 32.9392 3.22543L25.8891 21.8789C25.8543 21.9711 25.7928 22.0514 25.7121 22.1103C25.6314 22.1692 25.5349 22.2041 25.4343 22.2109L4.96632 22.9632C3.91246 22.9799 2.89041 23.3172 2.04348 23.9276C1.19655 24.5381 0.567206 25.3911 0.243698 26.3671C-0.0798092 27.3431 -0.0812606 28.3932 0.239548 29.37C0.560356 30.3469 1.18734 31.2016 2.03258 31.8142L18.0886 44.095C18.1689 44.1565 18.229 44.2396 18.2613 44.334C18.2936 44.4284 18.2968 44.5299 18.2705 44.6261L12.7441 63.6779C12.4578 64.648 12.4855 65.6805 12.8236 66.6348C13.1617 67.589 13.7937 68.4188 14.6337 69.0112C15.4736 69.6036 16.4808 69.9299 17.5181 69.9456C18.5554 69.9613 19.5725 69.6658 20.431 69.0991L37.3967 58.0353C37.4802 57.9792 37.5794 57.9491 37.6809 57.9491C37.7825 57.9491 37.8816 57.9792 37.9652 58.0353L54.9309 69.0991C55.7778 69.6851 56.7913 70 57.8305 70C58.8697 70 59.8832 69.6851 60.7301 69.0991C61.5703 68.5123 62.2029 67.6866 62.541 66.7356C62.879 65.7845 62.9058 64.755 62.6177 63.7885L57.0459 44.6703C57.0164 44.5743 57.018 44.4718 57.0506 44.3768C57.0831 44.2817 57.145 44.1988 57.2278 44.1393L73.352 31.7478Z" fill="#898A8C"/>
</svg>
