<svg width="15" height="18.4" viewBox="0 0 74 90" fill="none" xmlns="http://www.w3.org/2000/svg">
<path fill-rule="evenodd" clip-rule="evenodd" d="M40.481 7.83064C46.3955 0.0376929 54.6157 0 54.6157 0C54.6157 0 55.8375 7.32807 49.9638 14.386C43.6911 21.9245 36.5609 20.6901 36.5609 20.6901C36.5609 20.6901 35.2228 14.7629 40.481 7.83064V7.83064Z" fill="white"/>
<path fill-rule="evenodd" clip-rule="evenodd" d="M37.3157 25.8223C40.3593 25.8223 46.0038 21.6416 53.3539 21.6416C66.0029 21.6416 70.9814 30.6438 70.9814 30.6438C70.9814 30.6438 61.2473 35.6193 61.2473 47.6966C61.2473 61.3193 73.3718 66.0121 73.3718 66.0121C73.3718 66.0121 64.8972 89.8683 53.4481 89.8683C48.19 89.8683 44.1003 86.3252 38.5627 86.3252C33.025 86.3252 27.3146 90.0003 23.6647 90.0003C13.2081 90.0003 0 67.3721 0 49.1792C0 30.9862 11.179 21.8929 21.6638 21.8929C28.4799 21.8929 33.7694 25.8255 37.3157 25.8255V25.8223Z" fill="white"/>
</svg>
