<svg viewBox="0 0 79 70" fill="current" xmlns="http://www.w3.org/2000/svg">
<path d="M44.9135 0.014266C40.2342 -0.119363 35.5757 0.686916 31.2135 2.3854C26.8513 4.08388 22.8741 6.64006 19.5172 9.9027C16.1603 13.1653 13.4919 17.0681 11.6699 21.3802C9.84795 25.6922 8.90936 30.3259 8.90971 35.0071H1.95001C0.200371 35.0071 -0.65501 37.1067 0.58918 38.312L11.437 49.1598C12.2146 49.9374 13.4199 49.9374 14.1975 49.1598L25.0842 38.312C26.2506 37.1067 25.3952 35.0071 23.6456 35.0071H16.6859C16.6859 19.8824 29.1278 7.55717 44.2914 7.79046C58.7162 7.98486 70.8859 20.1546 71.1192 34.6183C71.3525 49.8208 59.0661 62.2238 43.9026 62.2238C37.7205 62.2238 32.0439 60.1631 27.4559 56.6638C25.9007 55.4974 23.7234 55.614 22.3625 57.0137C20.6906 58.6856 20.8462 61.4462 22.7124 62.8459C28.7991 67.4919 36.2454 70.0058 43.9026 70C63.5763 70 79.4398 53.7866 78.8954 34.0351C78.39 15.7611 63.1486 0.519718 44.9135 0.014266Z" fill="current"/>
</svg>
