<svg width="70" height="70" viewBox="0 0 70 70" fill="none" xmlns="http://www.w3.org/2000/svg">
<path fill-rule="evenodd" clip-rule="evenodd" d="M35 0C15.6705 0 0 15.6705 0 35C0 54.3295 15.6705 70 35 70C54.3295 70 70 54.3295 70 35C70 15.6705 54.3295 0 35 0ZM46.795 27.7041C47.3746 27.104 47.6953 26.3003 47.6881 25.466C47.6808 24.6317 47.3462 23.8337 46.7562 23.2438C46.1663 22.6538 45.3683 22.3192 44.534 22.3119C43.6997 22.3047 42.896 22.6254 42.2959 23.205L35 30.5009L27.7041 23.205C27.4106 22.9011 27.0595 22.6587 26.6713 22.4919C26.2831 22.3252 25.8656 22.2374 25.4431 22.2337C25.0206 22.2301 24.6016 22.3106 24.2106 22.4706C23.8196 22.6306 23.4643 22.8668 23.1656 23.1656C22.8668 23.4643 22.6306 23.8196 22.4706 24.2106C22.3106 24.6016 22.2301 25.0206 22.2337 25.4431C22.2374 25.8656 22.3252 26.2831 22.4919 26.6713C22.6587 27.0595 22.9011 27.4106 23.205 27.7041L30.5009 35L23.205 42.2959C22.9011 42.5894 22.6587 42.9405 22.4919 43.3287C22.3252 43.7169 22.2374 44.1344 22.2337 44.5569C22.2301 44.9794 22.3106 45.3984 22.4706 45.7894C22.6306 46.1804 22.8668 46.5357 23.1656 46.8344C23.4643 47.1332 23.8196 47.3694 24.2106 47.5294C24.6016 47.6894 25.0206 47.7699 25.4431 47.7663C25.8656 47.7626 26.2831 47.6748 26.6713 47.5081C27.0595 47.3413 27.4106 47.0989 27.7041 46.795L35 39.4991L42.2959 46.795C42.896 47.3746 43.6997 47.6953 44.534 47.6881C45.3683 47.6808 46.1663 47.3462 46.7562 46.7562C47.3462 46.1663 47.6808 45.3683 47.6881 44.534C47.6953 43.6997 47.3746 42.896 46.795 42.2959L39.4991 35L46.795 27.7041Z" fill="#898A8C"/>
</svg>
