<svg width="6" height="11" viewBox="0 0 37 70" fill="none" xmlns="http://www.w3.org/2000/svg">
<path d="M35.5912 68.4592C36.4932 67.4723 37 66.134 37 64.7386C37 63.3431 36.4932 62.0048 35.5912 61.0179L11.7726 34.9682L35.5912 8.91853C36.4677 7.926 36.9527 6.59666 36.9417 5.21683C36.9308 3.837 36.4247 2.51709 35.5326 1.54136C34.6404 0.565641 33.4335 0.012189 32.1719 0.000198524C30.9102 -0.0117919 29.6948 0.518645 28.7872 1.47726L1.56673 31.2476C0.664649 32.2345 0.157888 33.5728 0.157888 34.9682C0.157888 36.3637 0.664648 37.702 1.56673 38.6889L28.7872 68.4592C29.6896 69.4458 30.9133 70 32.1892 70C33.4651 70 34.6888 69.4458 35.5912 68.4592V68.4592Z" fill="#B2B3B6"/>
</svg>
