<svg viewBox="0 0 82 70" fill="none" xmlns="http://www.w3.org/2000/svg">
<path d="M60.5724 36.1495L44.3411 9.73631C43.9812 9.15073 43.4682 8.66535 42.8528 8.32814C42.2374 7.99092 41.5409 7.81355 40.8321 7.81355C40.1234 7.81355 39.4268 7.99092 38.8114 8.32814C38.196 8.66535 37.683 9.15073 37.3232 9.73631L29.0629 23.1851C29.8857 30.9153 32.9038 34.0558 38.7854 34.0558C46.952 34.0558 54.3283 34.7433 60.5765 36.1495H60.5724ZM66.906 46.45C60.605 43.454 50.7074 41.8681 38.7813 41.8681C31.3724 41.8681 26.114 38.6182 23.2506 32.634L8.70966 56.2973C8.34471 56.8907 8.14992 57.5662 8.14505 58.2551C8.14017 58.9441 8.32539 59.622 8.6819 60.2201C9.03842 60.8182 9.55355 61.3153 10.175 61.6608C10.7965 62.0064 11.5023 62.1882 12.2207 62.1878H69.4477C70.1657 62.1875 70.8709 62.0052 71.4919 61.6594C72.1128 61.3135 72.6273 60.8164 72.9834 60.2184C73.3394 59.6204 73.5243 58.9427 73.5192 58.2541C73.5142 57.5655 73.3194 56.8905 72.9546 56.2973L66.906 46.4539V46.45ZM51.359 5.76769L79.9725 52.3287C81.067 54.1084 81.6514 56.134 81.6664 58.2002C81.6813 60.2663 81.1264 62.2995 80.0578 64.0936C78.9893 65.8878 77.445 67.3791 75.5817 68.4163C73.7184 69.4536 71.6022 69.9999 69.4477 70H12.2207C10.0664 70.0002 7.9504 69.4543 6.08707 68.4175C4.22375 67.3807 2.67935 65.89 1.61041 64.0963C0.541469 62.3026 -0.0140106 60.2698 0.000268504 58.204C0.0145476 56.1381 0.598078 54.1125 1.69172 52.3326L30.3052 5.7716C31.3846 4.01396 32.9237 2.55697 34.7704 1.54471C36.617 0.532455 38.7072 0 40.8342 0C42.9612 0 45.0513 0.532455 46.898 1.54471C48.7446 2.55697 50.2837 4.01396 51.3631 5.7716L51.359 5.76769Z" fill="#B2B3B6"/>
</svg>
