<svg viewBox="0 0 86 70" fill="none" xmlns="http://www.w3.org/2000/svg">
<path d="M77.6337 10.7692H64.1667L60.9583 2.03846C60.7367 1.44104 60.3305 0.924633 59.7952 0.559785C59.26 0.194936 58.6218 -0.00056021 57.9679 1.2058e-06H27.5877C26.2509 1.2058e-06 25.0527 0.817309 24.6071 2.03846L21.3889 10.7692H7.92181C3.54501 10.7692 0 14.2115 0 18.4615V62.3077C0 66.5577 3.54501 70 7.92181 70H77.6337C82.0105 70 85.5556 66.5577 85.5556 62.3077V18.4615C85.5556 14.2115 82.0105 10.7692 77.6337 10.7692ZM78.4259 62.3077C78.4259 62.7308 78.0694 63.0769 77.6337 63.0769H7.92181C7.48611 63.0769 7.12963 62.7308 7.12963 62.3077V18.4615C7.12963 18.0385 7.48611 17.6923 7.92181 17.6923H26.4093L28.1026 13.0962L30.3702 6.92308H55.1754L57.443 13.0962L59.1363 17.6923H77.6337C78.0694 17.6923 78.4259 18.0385 78.4259 18.4615V62.3077ZM42.7778 23.8462C34.0242 23.8462 26.9342 30.7308 26.9342 39.2308C26.9342 47.7308 34.0242 54.6154 42.7778 54.6154C51.5314 54.6154 58.6214 47.7308 58.6214 39.2308C58.6214 30.7308 51.5314 23.8462 42.7778 23.8462ZM42.7778 48.4615C37.5296 48.4615 33.2716 44.3269 33.2716 39.2308C33.2716 34.1346 37.5296 30 42.7778 30C48.026 30 52.284 34.1346 52.284 39.2308C52.284 44.3269 48.026 48.4615 42.7778 48.4615Z" fill="#B2B3B6"/>
</svg>
