<svg width="71" height="70" viewBox="0 0 71 70" fill="none" xmlns="http://www.w3.org/2000/svg">
<path d="M15.1177 54.933L31.7961 54.8763L68.1993 18.8209C69.6279 17.3923 70.414 15.495 70.414 13.4768C70.414 11.4587 69.6279 9.5614 68.1993 8.13279L62.2052 2.13867C59.3479 -0.718557 54.3629 -0.70344 51.5284 2.12733L15.1177 38.1903V54.933V54.933ZM56.8611 7.48273L62.8666 13.4655L56.8309 19.4445L50.8367 13.4542L56.8611 7.48273ZM22.6765 41.3423L45.4662 18.768L51.4603 24.7621L28.6744 47.3289L22.6765 47.3478V41.3423Z" fill="#B2B3B6"/>
<path d="M7.55879 69.9993H60.4703C64.639 69.9993 68.0291 66.6092 68.0291 62.4405V29.6807L60.4703 37.2395V62.4405H19.4941C19.3959 62.4405 19.2938 62.4783 19.1955 62.4783C19.0708 62.4783 18.9461 62.4443 18.8176 62.4405H7.55879V9.529H33.4363L40.9951 1.97021H7.55879C3.39012 1.97021 0 5.36033 0 9.529V62.4405C0 66.6092 3.39012 69.9993 7.55879 69.9993Z" fill="#B2B3B6"/>
</svg>
