<svg viewBox="0 0 68 76" fill="current" xmlns="http://www.w3.org/2000/svg">
<path d="M33.5708 38C43.2358 38 51.0709 30.165 51.0709 20.5C51.0709 10.835 43.2358 3 33.5708 3C23.9058 3 16.0708 10.835 16.0708 20.5C16.0708 30.165 23.9058 38 33.5708 38Z"  stroke-width="6"/>
<path d="M51.0706 45H52.3026C54.8614 45.0007 57.3318 45.9358 59.2498 47.6295C61.1678 49.3232 62.4013 51.659 62.7186 54.198L64.0871 65.132C64.2102 66.117 64.1224 67.1169 63.8295 68.0654C63.5366 69.0139 63.0453 69.8892 62.3883 70.6333C61.7313 71.3774 60.9235 71.9733 60.0185 72.3813C59.1136 72.7893 58.1323 73.0003 57.1396 73H10.0015C9.00887 73.0003 8.02751 72.7893 7.12259 72.3813C6.21767 71.9733 5.40988 71.3774 4.75284 70.6333C4.0958 69.8892 3.60453 69.0139 3.31164 68.0654C3.01875 67.1169 2.93093 66.117 3.05403 65.132L4.41903 54.198C4.73646 51.6578 5.97098 49.321 7.89044 47.6272C9.8099 45.9333 12.2821 44.999 14.842 45H16.0705"  stroke-width="6" stroke-linecap="round" stroke-linejoin="round"/>
</svg>
