<svg width="15.08" height="14" viewBox="0 0 76 70" fill="none" xmlns="http://www.w3.org/2000/svg">
<path d="M57.7228 69.9998C56.7175 69.9988 55.7352 69.7057 54.902 69.1579L37.9312 58.0812C37.8476 58.025 37.7484 57.9949 37.6468 57.9949C37.5452 57.9949 37.446 58.025 37.3624 58.0812L20.3917 69.1579C19.5395 69.7121 18.5343 70.0006 17.5098 69.9853C16.4852 69.97 15.4896 69.6516 14.6553 69.0722C13.8209 68.4929 13.1873 67.6801 12.8385 66.7418C12.4897 65.8035 12.4423 64.7841 12.7025 63.819L18.276 44.6784C18.3024 44.5821 18.2992 44.4805 18.2668 44.386C18.2345 44.2915 18.1744 44.2083 18.094 44.1467L2.03319 31.8515C1.18769 31.2381 0.560525 30.3824 0.23962 29.4044C-0.0812852 28.4264 -0.0798333 27.3752 0.243772 26.398C0.567377 25.4208 1.19691 24.5668 2.04409 23.9557C2.89128 23.3445 3.91364 23.0069 4.96781 22.9901L25.4419 22.2369C25.5426 22.2301 25.6391 22.1951 25.7199 22.1362C25.8006 22.0772 25.8621 21.9968 25.8969 21.9046L32.9491 3.2292C33.3046 2.28245 33.9502 1.46494 34.7986 0.887352C35.647 0.309764 36.6572 0 37.6923 0C38.7275 0 39.7376 0.309764 40.586 0.887352C41.4344 1.46494 42.08 2.28245 42.4355 3.2292L49.4877 21.9046C49.5225 21.9968 49.584 22.0772 49.6648 22.1362C49.7455 22.1951 49.842 22.2301 49.9427 22.2369L70.4168 22.9901C71.471 23.0069 72.4933 23.3445 73.3405 23.9557C74.1877 24.5668 74.8172 25.4208 75.1408 26.398C75.4644 27.3752 75.4659 28.4264 75.145 29.4044C74.8241 30.3824 74.1969 31.2381 73.3514 31.8515L57.2906 44.1467C57.2078 44.2063 57.1459 44.2893 57.1133 44.3845C57.0807 44.4796 57.0791 44.5823 57.1086 44.6784L62.6821 63.819C62.8778 64.5531 62.8972 65.3213 62.7388 66.064C62.5805 66.8066 62.2487 67.5038 61.7692 68.1015C61.2896 68.6991 60.6752 69.1813 59.9735 69.5105C59.2718 69.8397 58.5017 70.0071 57.7228 69.9998V69.9998ZM37.6582 53.5619C38.6656 53.5919 39.6405 53.9161 40.4563 54.4923L57.4271 65.5691C57.5131 65.6327 57.6179 65.6676 57.726 65.6684C57.834 65.6693 57.9394 65.636 58.0264 65.5737C58.1135 65.5114 58.1774 65.4233 58.2088 65.3227C58.2402 65.222 58.2373 65.1142 58.2006 65.0152L52.6271 45.8746C52.3528 44.9357 52.373 43.9383 52.6851 43.0107C52.9973 42.083 53.5871 41.2674 54.3787 40.6686L70.4395 28.3734C70.5272 28.3135 70.5927 28.2278 70.6266 28.1289C70.6605 28.03 70.661 27.9231 70.6279 27.8239C70.5948 27.7248 70.5299 27.6386 70.4428 27.578C70.3556 27.5174 70.2509 27.4856 70.1438 27.4873L49.6697 26.734C48.6672 26.696 47.699 26.368 46.8887 25.792C46.0783 25.2159 45.4626 24.4179 45.1199 23.4996L38.0677 4.82425C38.0359 4.7251 37.9724 4.63842 37.8864 4.57688C37.8005 4.51534 37.6966 4.48215 37.5899 4.48215C37.4833 4.48215 37.3794 4.51534 37.2934 4.57688C37.2075 4.63842 37.144 4.7251 37.1122 4.82425L30.1283 23.4775C29.7856 24.3957 29.1698 25.1938 28.3594 25.7698C27.5491 26.3459 26.581 26.6738 25.5784 26.7119L5.10431 27.4651C4.99726 27.4634 4.89247 27.4952 4.80535 27.5558C4.71823 27.6164 4.65335 27.7026 4.62026 27.8018C4.58717 27.9009 4.5876 28.0078 4.6215 28.1067C4.65539 28.2056 4.72096 28.2913 4.80857 28.3512L20.8921 40.6686C21.6814 41.2693 22.2694 42.0851 22.5813 43.0121C22.8932 43.9391 22.915 44.9355 22.6438 45.8746L17.0931 65.0152C17.0599 65.1111 17.0598 65.2148 17.0926 65.3108C17.1254 65.4067 17.1895 65.4896 17.275 65.5469C17.3575 65.6156 17.4623 65.6533 17.5708 65.6533C17.6792 65.6533 17.7841 65.6156 17.8665 65.5469L34.8373 54.4702C35.6667 53.9344 36.6402 53.6493 37.6354 53.6505L37.6582 53.5619Z" fill="#009D68"/>
</svg>
